<svg version="1.1" id="Layer_1" xmlns="http://www.w3.org/2000/svg" xmlns:xlink="http://www.w3.org/1999/xlink" x="0px" y="0px"
	 viewBox="0 0 223.867 223.867" style="enable-background:new 0 0 223.867 223.867;" xml:space="preserve">
<g>
	<g>
		<path d="M170.604,151l-38.7-39.3l38.7-38.8c5.8-5.8,5.8-14.2,0-19.9l-48.7-48.8c-2.6-2.6-6.2-4.2-9.9-4.2
			c-7.8,0-13.6,6.3-13.6,14.2v64L73.304,53c-13.1-13.6-33.5,6.8-19.9,19.9l39.2,38.8l-39.2,39.3c-13.6,13.1,6.8,33.6,19.9,19.4
			l25.1-24.7v64c0,12.6,14.6,18.9,23.5,10l48.7-49.3C176.404,165.2,176.404,156.2,170.604,151z M126.104,47.7l15.2,15.2l-15.2,15.2
			V47.7z M126.104,176.2v-30.4l15.2,15.2L126.104,176.2z"/>
	</g>
</g>
<g>
</g>
<g>
</g>
<g>
</g>
<g>
</g>
<g>
</g>
<g>
</g>
<g>
</g>
<g>
</g>
<g>
</g>
<g>
</g>
<g>
</g>
<g>
</g>
<g>
</g>
<g>
</g>
<g>
</g>
</svg>